<?xml version="1.0" standalone="no"?>
<!DOCTYPE svg PUBLIC "-//W3C//DTD SVG 20010904//EN"
 "http://www.w3.org/TR/2001/REC-SVG-20010904/DTD/svg10.dtd">
<svg version="1.0" xmlns="http://www.w3.org/2000/svg"
 width="600.000000pt" height="450.000000pt" viewBox="0 0 600.000000 450.000000"
 preserveAspectRatio="xMidYMid meet">

<g transform="translate(0.000000,450.000000) scale(0.100000,-0.100000)"
fill="#000000" stroke="none">
<path d="M1651 4104 c-17 -14 -35 -42 -41 -62 -14 -51 -14 -2783 0 -2834 6
-20 24 -48 41 -62 l31 -26 568 0 568 0 31 26 c17 14 35 42 41 62 14 51 14
2783 0 2834 -6 20 -24 48 -41 62 l-31 26 -568 0 -568 0 -31 -26z m1169 -2 c19
-9 40 -28 47 -42 18 -37 18 -2833 0 -2870 -7 -14 -28 -33 -47 -42 -32 -16 -81
-18 -568 -18 -584 0 -586 0 -616 59 -14 27 -16 179 -16 1436 0 1554 -4 1451
63 1480 26 12 134 14 567 15 490 0 538 -2 570 -18z"/>
<path d="M1830 3957 c-98 -65 -97 -199 1 -265 28 -20 44 -23 89 -20 64 5 99
26 129 79 28 49 27 103 -4 154 -43 74 -146 99 -215 52z m121 3 c19 -5 48 -24
65 -41 26 -27 29 -37 29 -94 0 -57 -3 -67 -30 -95 -85 -88 -229 -39 -242 83
-6 58 22 106 77 135 50 25 52 25 101 12z"/>
<path d="M1900 3881 c0 -39 -5 -53 -21 -64 -11 -8 -16 -17 -11 -21 5 -3 18 2
30 10 18 12 22 25 22 70 0 30 -4 54 -10 54 -5 0 -10 -22 -10 -49z"/>
<path d="M2233 3823 c54 -2 139 -2 190 0 51 1 7 3 -98 3 -104 0 -146 -2 -92
-3z"/>
<path d="M2140 1200 c0 -6 43 -10 110 -10 67 0 110 4 110 10 0 6 -43 10 -110
10 -67 0 -110 -4 -110 -10z"/>
<path d="M3151 3354 c-17 -14 -35 -42 -41 -62 -14 -51 -14 -2783 0 -2834 6
-20 24 -48 41 -62 l31 -26 369 0 369 0 0 -75 0 -75 45 0 45 0 0 75 0 75 330 0
330 0 0 -75 0 -75 45 0 45 0 0 945 0 945 -45 0 -45 0 0 -75 0 -75 -255 0 -255
0 -11 27 c-6 15 -6 36 -1 51 8 26 9 26 120 26 97 1 113 -1 118 -16 11 -37 94
-88 94 -58 0 6 -6 10 -14 10 -21 0 -66 40 -66 58 0 10 22 28 55 46 31 16 75
51 100 78 113 125 134 289 57 438 -16 30 -32 76 -35 103 -13 93 -61 155 -137
174 l-35 9 -5 195 c-5 205 -9 221 -56 258 -26 21 -35 21 -595 21 l-567 0 -31
-26z m1169 -2 c57 -28 60 -42 60 -302 l0 -235 -102 0 c-91 0 -110 -3 -160 -27
-68 -31 -138 -94 -172 -153 -39 -66 -71 -205 -47 -205 4 0 11 25 14 55 12 121
86 224 203 281 66 33 84 38 152 38 221 1 384 -170 370 -389 -9 -136 -79 -240
-205 -302 -68 -34 -82 -37 -159 -37 -77 0 -89 3 -161 40 -88 44 -149 109 -178
190 -22 59 -41 83 -31 39 21 -92 103 -195 190 -241 42 -22 52 -31 44 -41 -6
-7 -8 -33 -6 -58 l6 -45 -64 0 -64 0 0 75 0 75 -45 0 -45 0 0 -865 0 -865
-350 0 c-386 0 -405 3 -434 59 -14 27 -16 179 -16 1436 0 1554 -4 1451 63
1480 26 12 134 14 567 15 490 0 538 -2 570 -18z m133 -476 c60 -25 107 -93
107 -153 l0 -25 -36 32 c-20 17 -56 41 -80 53 -42 20 -44 23 -44 64 0 47 5 50
53 29z m-463 -861 l0 -75 345 0 345 0 0 75 0 75 30 0 30 0 0 -931 0 -930 -27
3 c-27 3 -28 5 -31 76 l-3 72 -344 0 -345 0 0 -75 c0 -73 -1 -75 -25 -75 l-25
0 0 930 0 930 25 0 c24 0 25 -2 25 -75z"/>
<path d="M3733 3073 c54 -2 139 -2 190 0 51 1 7 3 -98 3 -104 0 -146 -2 -92
-3z"/>
<path d="M3520 2888 c-49 -14 -96 -62 -109 -112 -28 -113 68 -213 184 -192 46
9 64 -2 161 -94 102 -98 156 -121 299 -127 114 -6 275 21 254 41 -2 3 -33 -2
-69 -11 -45 -10 -100 -14 -181 -11 -107 4 -122 7 -183 37 -45 22 -81 49 -113
87 -27 30 -63 64 -81 75 l-32 21 29 34 c103 117 -9 295 -159 252z m110 -29
c47 -27 70 -66 70 -121 0 -82 -57 -138 -140 -138 -54 0 -93 23 -120 73 -39 69
-13 152 61 189 45 24 83 23 129 -3z"/>
<path d="M3510 2819 c0 -7 9 -27 21 -45 16 -26 18 -38 10 -53 -13 -24 -14 -31
-3 -31 5 0 14 11 21 24 12 21 10 29 -14 70 -28 47 -35 55 -35 35z"/>
<path d="M4054 2635 c-8 -19 12 -36 33 -28 19 7 12 37 -10 41 -9 2 -20 -4 -23
-13z"/>
<path d="M4145 2600 c-9 -15 4 -30 26 -30 12 0 19 7 19 20 0 21 -33 29 -45 10z"/>
<path d="M3640 450 c0 -6 43 -10 110 -10 67 0 110 4 110 10 0 6 -43 10 -110
10 -67 0 -110 -4 -110 -10z"/>
<path d="M3990 1725 l0 -155 345 0 345 0 0 155 0 155 -345 0 -345 0 0 -155z
m390 0 l0 -145 -185 0 -185 0 0 145 0 145 185 0 185 0 0 -145z m290 0 l0 -145
-135 0 -135 0 0 145 0 145 135 0 135 0 0 -145z"/>
<path d="M3990 1350 l0 -160 345 0 345 0 0 160 0 160 -345 0 -345 0 0 -160z
m390 0 l0 -140 -185 0 -185 0 0 140 0 140 185 0 185 0 0 -140z m290 0 l0 -140
-135 0 -135 0 0 140 0 140 135 0 135 0 0 -140z"/>
<path d="M3990 975 l0 -155 345 0 345 0 0 155 0 155 -345 0 -345 0 0 -155z
m390 0 l0 -145 -185 0 -185 0 0 145 0 145 185 0 185 0 0 -145z m290 0 l0 -145
-135 0 -135 0 0 145 0 145 135 0 135 0 0 -145z"/>
<path d="M3990 600 l0 -160 345 0 345 0 0 160 0 160 -345 0 -345 0 0 -160z
m390 0 l0 -140 -185 0 -185 0 0 140 0 140 185 0 185 0 0 -140z m290 0 l0 -140
-141 0 c-125 0 -140 2 -135 16 3 9 6 72 6 140 l0 124 135 0 135 0 0 -140z"/>
</g>
</svg>
