<?xml version="1.0" standalone="no"?>
<!DOCTYPE svg PUBLIC "-//W3C//DTD SVG 20010904//EN"
 "http://www.w3.org/TR/2001/REC-SVG-20010904/DTD/svg10.dtd">
<svg version="1.0" xmlns="http://www.w3.org/2000/svg"
 width="600.000000pt" height="450.000000pt" viewBox="0 0 600.000000 450.000000"
 preserveAspectRatio="xMidYMid meet">

<g transform="translate(0.000000,450.000000) scale(0.100000,-0.100000)"
fill="#000000" stroke="none">
<path d="M650 2745 l0 -1225 79 0 79 0 7 -40 c18 -105 99 -210 210 -272 71
-40 86 -69 62 -117 -8 -17 -11 -31 -7 -31 17 0 32 42 28 79 l-3 36 103 0 c99
1 103 0 108 -22 6 -23 3 -40 -11 -75 -4 -10 -3 -18 3 -18 19 0 35 68 24 100
-10 28 -9 30 41 58 29 17 68 46 86 66 26 27 43 36 68 36 43 0 111 28 123 51
16 30 11 64 -15 103 -14 20 -25 39 -25 41 0 10 3059 5 3065 -5 4 -6 25 -20 48
-31 23 -12 43 -22 45 -24 1 -1 -3 -15 -9 -32 -8 -24 -7 -39 6 -68 18 -45 30
-42 13 3 -16 42 -1 88 28 84 10 -2 55 -4 99 -4 l81 -1 -4 -34 c-4 -35 15 -86
29 -78 4 3 1 18 -7 34 -25 51 -10 76 73 121 73 39 77 40 174 40 l99 0 0 1225
0 1225 -2350 0 -2350 0 0 -1225z m4680 0 l0 -1205 -80 0 -80 0 34 48 c57 79
71 125 71 232 -1 84 -4 102 -30 155 -90 187 -312 269 -500 186 -101 -45 -170
-124 -206 -237 -12 -38 -24 -71 -25 -73 -2 -2 -34 6 -71 17 -114 35 -192 96
-224 177 -6 17 -13 25 -16 18 -7 -20 34 -88 78 -127 46 -43 100 -69 180 -89
l54 -14 7 -54 c10 -76 32 -133 74 -190 l36 -49 -1525 0 c-1363 0 -1525 2
-1531 15 -3 9 1 18 9 21 8 4 15 10 15 15 0 4 -6 6 -14 3 -9 -4 -17 9 -25 43
-28 111 -112 211 -219 261 -49 23 -70 27 -152 27 -87 0 -101 -3 -161 -32 -118
-58 -204 -177 -216 -298 l-6 -55 -68 0 -69 0 0 1205 0 1205 2330 0 2330 0 0
-1205z m-277 -603 c129 -60 199 -166 205 -309 6 -135 -42 -239 -144 -312 -184
-132 -441 -66 -542 139 -24 49 -27 67 -27 155 0 119 18 166 92 246 110 118
270 150 416 81z m-3695 -271 c72 -39 119 -88 159 -163 25 -48 28 -62 28 -158
0 -100 -1 -108 -34 -168 -39 -72 -88 -120 -163 -159 -48 -25 -62 -28 -158 -28
-96 0 -110 3 -158 28 -75 39 -124 87 -163 159 -33 60 -34 68 -34 168 0 95 3
110 27 157 37 69 81 118 135 150 78 45 112 53 208 50 80 -3 97 -7 153 -36z
m268 -413 c33 -63 6 -107 -71 -115 l-45 -6 24 54 c14 30 28 71 32 92 6 37 7
38 26 20 11 -10 26 -30 34 -45z"/>
<path d="M2620 3515 l0 -45 380 0 380 0 0 45 0 45 -380 0 -380 0 0 -45z m740
5 l0 -30 -360 0 -360 0 0 30 0 30 360 0 360 0 0 -30z"/>
<path d="M2123 3253 c482 -2 1272 -2 1755 0 482 1 87 2 -878 2 -965 0 -1360
-1 -877 -2z"/>
<path d="M1280 3031 c-81 -26 -158 -90 -193 -158 -27 -52 -38 -134 -27 -192
45 -236 327 -332 503 -171 72 66 101 130 100 225 0 166 -122 294 -288 301 -38
2 -81 0 -95 -5z m182 -27 c61 -20 117 -70 153 -135 26 -47 30 -64 30 -134 0
-67 -5 -88 -27 -131 -53 -101 -144 -156 -260 -156 -115 0 -203 56 -260 165
-17 32 -22 60 -22 118 -1 65 3 84 29 134 32 63 100 124 159 143 48 15 147 14
198 -4z"/>
<path d="M1350 2833 c0 -85 -3 -104 -24 -140 -33 -57 -19 -64 16 -8 26 41 28
53 28 145 0 60 -4 100 -10 100 -6 0 -10 -39 -10 -97z"/>
<path d="M2100 3031 c-139 -45 -223 -158 -223 -297 0 -264 312 -401 506 -224
71 65 100 130 100 225 0 166 -122 294 -288 301 -38 2 -81 0 -95 -5z m182 -27
c61 -20 117 -70 153 -135 26 -47 30 -64 30 -134 0 -67 -5 -88 -27 -131 -53
-101 -144 -156 -260 -156 -115 0 -202 55 -260 165 -18 34 -23 58 -23 122 1 69
4 87 30 134 35 63 92 115 149 135 55 19 152 20 208 0z"/>
<path d="M2170 2835 l0 -95 -41 -26 c-53 -33 -43 -43 13 -12 l43 23 3 103 c2
65 -1 102 -8 102 -6 0 -10 -36 -10 -95z"/>
<path d="M2920 3031 c-90 -29 -166 -97 -203 -180 -31 -70 -28 -173 7 -245 114
-234 438 -234 552 0 71 145 7 326 -140 401 -54 28 -167 40 -216 24z m182 -27
c61 -20 117 -70 153 -135 26 -47 30 -64 30 -134 0 -88 -17 -133 -76 -199 -102
-117 -316 -117 -418 0 -59 66 -76 111 -76 199 0 70 4 87 30 134 35 63 92 115
149 135 55 19 152 20 208 0z"/>
<path d="M2990 2835 l0 -95 -45 0 c-25 0 -45 -5 -45 -11 0 -6 21 -9 53 -7 l52
3 3 103 c2 65 -1 102 -8 102 -6 0 -10 -36 -10 -95z"/>
<path d="M3740 3031 c-138 -45 -223 -158 -223 -296 0 -95 29 -160 100 -225
116 -106 287 -107 403 -3 163 146 130 401 -64 500 -54 28 -167 40 -216 24z
m182 -27 c61 -20 117 -70 153 -135 26 -47 29 -65 30 -134 0 -64 -5 -88 -23
-122 -58 -110 -145 -165 -260 -165 -116 0 -207 55 -260 156 -22 43 -27 64 -27
131 0 70 4 87 30 134 35 63 92 115 149 135 55 19 152 20 208 0z"/>
<path d="M3812 2828 l3 -103 43 -23 c56 -31 66 -21 13 12 l-41 26 0 95 c0 59
-4 95 -10 95 -7 0 -10 -37 -8 -102z"/>
<path d="M4560 3031 c-138 -45 -223 -158 -223 -296 -1 -95 28 -159 100 -225
176 -161 458 -65 503 171 11 58 0 140 -27 192 -25 49 -85 108 -137 134 -54 28
-167 40 -216 24z m170 -22 c64 -19 131 -78 165 -144 26 -50 30 -69 29 -134 0
-58 -5 -86 -22 -118 -57 -109 -145 -165 -260 -165 -116 0 -207 55 -260 156
-22 43 -27 64 -27 131 0 70 4 87 30 134 35 63 92 115 149 135 50 18 145 20
196 5z"/>
<path d="M4630 2830 c0 -92 2 -104 28 -145 35 -56 49 -49 16 8 -21 36 -24 55
-24 140 0 58 -4 97 -10 97 -6 0 -10 -40 -10 -100z"/>
<path d="M4693 2023 c-21 -8 -15 -43 6 -43 11 0 23 5 27 11 8 14 -17 38 -33
32z"/>
<path d="M4780 2020 c-18 -11 -4 -42 17 -38 10 2 19 10 21 19 4 19 -19 31 -38
19z"/>
<path d="M4989 1800 c82 -28 89 -50 39 -125 -59 -87 -61 -92 -55 -108 7 -18
47 -24 47 -7 0 6 -9 10 -20 10 -11 0 -20 3 -20 6 0 3 20 33 45 66 46 61 56 99
35 138 -11 20 -61 40 -99 39 -19 0 -11 -5 28 -19z"/>
<path d="M1372 1787 c-15 -17 1 -42 23 -33 18 6 17 37 -1 43 -6 2 -16 -2 -22
-10z"/>
<path d="M1274 1745 c-4 -9 -2 -21 4 -27 15 -15 44 -1 40 19 -4 23 -36 29 -44
8z"/>
<path d="M1140 1550 c-81 -19 -89 -86 -20 -174 46 -60 49 -76 18 -76 -16 0
-19 -3 -11 -11 13 -13 53 4 53 22 0 6 -20 38 -45 71 -43 58 -55 97 -37 125 10
15 57 33 88 33 13 0 24 5 24 10 0 11 -20 11 -70 0z"/>
</g>
</svg>
