<?xml version="1.0" standalone="no"?>
<!DOCTYPE svg PUBLIC "-//W3C//DTD SVG 20010904//EN"
 "http://www.w3.org/TR/2001/REC-SVG-20010904/DTD/svg10.dtd">
<svg version="1.0" xmlns="http://www.w3.org/2000/svg"
 width="600.000000pt" height="450.000000pt" viewBox="0 0 600.000000 450.000000"
 preserveAspectRatio="xMidYMid meet">

<g transform="translate(0.000000,450.000000) scale(0.100000,-0.100000)"
fill="#000000" stroke="none">
<path d="M3333 2900 c-127 -26 -846 -226 -886 -247 -95 -48 -173 -147 -201
-258 -23 -85 -20 -118 10 -154 20 -24 34 -31 63 -31 54 0 80 32 91 110 12 81
52 145 113 177 46 24 838 233 882 233 22 0 63 -11 92 -24 137 -64 172 -252 67
-360 -21 -21 -51 -44 -68 -51 -17 -7 -177 -52 -356 -99 -179 -48 -344 -94
-368 -102 -48 -18 -62 -38 -62 -87 0 -34 26 -67 63 -80 15 -6 707 173 771 199
16 6 18 4 13 -10 -4 -10 -7 -139 -7 -288 0 -250 -1 -269 -17 -257 -13 12 -184
15 -985 19 l-969 5 388 104 c213 57 412 112 441 123 73 27 163 113 202 191 33
68 55 165 44 200 -12 42 -45 67 -86 67 -60 0 -79 -25 -92 -123 -7 -54 -50
-123 -94 -152 -44 -28 -840 -245 -899 -245 -44 0 -117 31 -151 63 -72 67 -90
194 -39 280 47 80 71 90 474 198 398 107 413 113 413 178 0 35 -31 77 -63 85
-33 8 -756 -187 -819 -221 -65 -35 -143 -120 -176 -190 -24 -52 -27 -70 -27
-163 0 -97 2 -110 31 -170 48 -102 129 -173 243 -215 31 -12 -2 -14 -249 -15
-207 0 -289 -4 -301 -13 -33 -25 -39 -55 -39 -196 0 -135 1 -140 26 -170 l26
-31 173 0 172 0 6 -65 c4 -53 11 -76 39 -118 137 -205 455 -111 458 136 l0 47
914 0 914 0 29 24 28 24 28 -24 c23 -20 39 -24 91 -24 l62 0 1 -48 c2 -165
161 -283 318 -237 103 29 172 116 182 227 l6 58 104 0 c110 0 153 12 173 49 6
11 10 97 11 202 0 164 -2 185 -19 208 -26 36 -59 51 -114 51 -100 0 -108 17
-108 235 0 131 -3 172 -16 196 -28 55 -54 59 -360 59 l-277 0 39 43 c87 93
120 186 111 308 -6 99 -38 170 -109 245 -93 99 -235 148 -355 124z m200 -37
c101 -37 188 -126 227 -230 32 -85 26 -216 -15 -298 -36 -75 -110 -149 -178
-180 -28 -13 -216 -67 -416 -121 -334 -89 -367 -96 -390 -83 -37 21 -48 65
-24 97 17 23 60 37 379 123 361 97 421 117 461 161 57 61 81 186 49 262 -20
47 -73 104 -120 129 -76 39 -121 32 -561 -87 -220 -59 -412 -114 -426 -122
-67 -34 -129 -136 -129 -212 0 -69 -81 -103 -123 -51 -16 20 -18 34 -13 87 11
120 89 238 195 295 40 22 477 147 851 242 68 18 168 13 233 -12z m-1395 -329
c31 -22 31 -88 0 -108 -13 -8 -169 -53 -348 -101 -179 -47 -347 -93 -373 -102
-86 -27 -147 -97 -168 -191 -21 -100 37 -214 135 -264 75 -39 123 -31 554 85
216 59 409 115 430 126 73 37 119 107 129 194 11 89 68 123 120 71 24 -24 25
-30 19 -87 -12 -119 -94 -245 -193 -299 -47 -26 -817 -239 -914 -253 -98 -15
-216 26 -303 106 -154 141 -161 385 -16 543 67 72 120 93 505 197 198 54 369
98 380 98 11 1 31 -6 43 -15z m2101 -389 c16 -8 31 -22 35 -30 3 -9 6 -92 6
-184 0 -144 3 -172 19 -204 l19 -37 -62 0 -61 0 0 83 c0 71 -4 88 -27 128 -88
149 -295 172 -406 44 -50 -56 -64 -100 -60 -182 l3 -73 -67 0 -68 0 0 210 c0
211 0 211 25 235 l24 25 296 0 c240 0 301 -3 324 -15z m-201 -151 c86 -35 141
-120 142 -216 0 -65 -7 -88 -26 -88 -8 0 -14 -4 -14 -10 0 -6 61 -10 164 -10
160 0 166 -1 193 -24 l28 -24 3 -168 c4 -186 1 -205 -30 -234 -19 -18 -35 -20
-138 -20 l-116 0 -12 33 c-43 118 -186 184 -314 145 -53 -16 -132 -88 -152
-138 l-16 -40 -67 0 c-55 0 -71 4 -90 22 -23 21 -23 25 -23 235 l0 213 95 0
c87 0 122 10 76 23 -46 12 -34 152 19 225 57 79 186 115 278 76z m-504 -446
c23 -33 23 -293 0 -326 l-15 -22 -923 0 -922 0 -13 36 c-32 88 -131 154 -231
154 -100 0 -199 -66 -231 -154 l-13 -36 -175 0 c-148 0 -177 2 -193 17 -16 14
-18 33 -18 166 0 126 3 153 17 169 15 17 71 18 1359 18 l1343 0 15 -22z
m-1994 -202 c58 -28 105 -91 120 -159 23 -101 -29 -210 -124 -260 -57 -30
-155 -30 -212 0 -94 50 -145 156 -124 257 33 158 193 234 340 162z m2564 2
c151 -76 172 -293 37 -395 -103 -79 -237 -64 -324 37 -164 192 60 471 287 358z"/>
<path d="M4035 1860 c-4 -6 -3 -16 3 -22 6 -6 12 -6 17 2 4 6 3 16 -3 22 -6 6
-12 6 -17 -2z"/>
<path d="M4095 1860 c-4 -6 -3 -16 3 -22 6 -6 12 -6 17 2 4 6 3 16 -3 22 -6 6
-12 6 -17 -2z"/>
<path d="M3871 1796 c-55 -80 -72 -156 -38 -169 7 -2 66 -2 131 1 85 3 114 7
101 14 -9 6 -65 9 -124 7 l-106 -4 2 33 c0 18 17 60 37 94 44 72 41 89 -3 24z"/>
<path d="M5038 2118 c-20 -16 -168 -272 -168 -291 0 -32 35 -47 108 -47 l72 0
0 -180 c0 -113 4 -180 10 -180 6 0 10 67 10 180 l0 180 74 0 c77 0 106 13 106
47 0 19 -137 260 -162 285 -21 21 -29 22 -50 6z m44 -25 c33 -40 149 -254 146
-270 -3 -16 -18 -18 -168 -18 -148 0 -165 2 -168 17 -5 24 148 288 167 288 4
0 15 -8 23 -17z"/>
<path d="M5037 1975 c-21 -43 -21 -45 -2 -45 11 0 15 -11 15 -40 0 -22 5 -40
10 -40 6 0 10 18 10 40 0 34 3 40 20 40 20 0 20 1 -2 40 -13 22 -26 40 -29 40
-3 0 -13 -16 -22 -35z"/>
</g>
</svg>
